<svg height="1200pt" preserveAspectRatio="xMidYMid meet" viewBox="0 0 1200 1200" width="1200pt" xmlns="http://www.w3.org/2000/svg"><g transform="matrix(.1 0 0 -.1 0 1200)"><path d="m5580 11305c-398-32-832-117-1207-236-300-95-765-300-1030-455-164-96-491-317-613-414-682-548-1162-1143-1526-1895-298-616-466-1257-515-1970-14-206-6-659 15-860 50-469 156-933 302-1316l44-116v-1047-1046h750 750l37-33c148-131 445-341 688-487 857-513 1838-771 2840-747 448 11 779 56 1204 162 737 185 1464 553 2061 1043l75 62h748 747v1044 1044l49 134c152 418 251 860 303 1358 20 194 17 784-5 990-96 892-381 1693-862 2420-200 303-396 542-670 815-218 219-356 339-576 504-567 426-1216 734-1894 902-440 108-756 148-1235 154-212 3-369 0-480-10zm680-135c827-43 1598-267 2301-669 694-398 1291-952 1734-1611 485-722 774-1532 861-2414 24-236 24-708 0-946-48-489-156-959-318-1378l-39-102h-191c-177 0-190 1-183 17 182 447 297 900 344 1358 31 302 34 366 27 577-14 463-65 813-178 1218-278 998-884 1889-1717 2524-696 530-1515 855-2401 951-201 22-628 30-820 16-1046-80-1969-451-2765-1112-137-114-481-459-596-599-446-541-750-1118-940-1785-60-212-125-553-150-785-46-435-23-1010 56-1395 72-355 170-686 275-930 11-26 20-49 20-51s-85-4-189-4h-190l-39 103c-361 937-437 2015-211 3000 460 2009 2082 3566 4102 3938 200 37 349 56 529 69 292 21 423 23 678 10zm205-615c1081-114 2046-570 2811-1330 525-522 905-1134 1143-1842 65-195 169-613 153-613-31 0-162 36-162 44 0 21-78 164-121 223-91 124-201 214-345 286-143 72-221 90-408 92l-159 3-938 938-939 939-608-608-608-608-52 105c-59 122-113 205-190 294l-55 63-44-43c-62-60-150-188-203-294-25-49-46-91-48-94-1-2-270 263-597 590l-595 595-939-939-938-938-159-2c-127-2-175-7-237-24-168-46-324-139-443-264-75-79-113-134-164-240l-40-83-68-17c-37-10-72-18-78-18-14 0 29 214 82 404 211 763 620 1462 1184 2027 366 366 740 640 1181 866 558 286 1203 464 1825 503 189 12 577 4 759-15zm-1396-2029 564-564-26-103c-66-263-61-484 15-632 48-95 160-177 261-192l47-7v-427-426l-230 230-231 231 17 32c68 136-19 308-228 451-111 75-284 141-372 141h-39l6-87c18-269 162-554 320-635 46-23 129-28 163-10 18 10 50-19 307-276l287-287v-57-58l-549-2-549-3-12 40c-20 66-86 202-137 278-74 112-203 240-321 317-116 77-212 120-351 158-87 23-113 26-276 26-151-1-193-4-260-22-43-12-80-20-81-19s-16 49-34 107c-35 114-88 227-144 305-89 124-236 244-375 307l-64 30 859 859c472 472 861 859 864 859s259-254 569-564zm3294-294 859-859-104-51c-237-117-393-307-479-582-17-58-35-108-38-111-3-4-40 2-81 12-113 29-331 36-444 15-224-43-404-127-567-267l-56-47-198 198-199 199 21 38c55 100 113 321 113 434v49h-38c-88 0-251-61-364-137l-70-46-158 158-157 157-5 147c-4 109-13 177-33 269l-28 124 579 579c318 318 581 579 584 579s391-386 863-858zm-5705-978c31-8 103-37 159-64 172-85 312-236 383-414 30-74 70-248 70-302 0-13 6-27 13-30 8-3 67 11 132 31 221 67 413 70 605 9 276-87 490-271 616-529 24-50 44-94 44-98s-750-7-1666-7h-1667l6 228c6 232 31 497 49 519 14 17 123 50 211 65 66 11 70 13 84 47 46 108 108 223 148 273 122 152 333 268 535 292 58 7 217-4 278-20zm7069 0c70-18 186-71 250-116 139-95 248-237 313-410l20-53 109-21c60-12 126-30 147-40l39-19 12-95c20-163 33-361 33-508v-142h-1665c-1345 0-1665 2-1665 13 0 19 64 148 104 212 55 85 191 220 286 284 172 115 335 163 555 164 127 1 151-2 255-31 63-17 134-38 156-46l41-14 17 106c21 134 47 216 97 313 115 222 336 379 587 419 74 11 235 3 309-16zm-3130-301c-61-94-80-186-53-263 14-41 14-46-2-65-41-48-457-465-464-465-4 0-8 195-8 434v434l57 18c80 25 142 70 187 137l40 58 130-131 131-130zm748-738c-77-105-130-211-178-347-6-17-41-18-552-18h-545v48 47l298 298 299 299 51-17c46-16 55-16 105-1 31 9 76 33 103 55l49 40 192-192c182-181 192-192 178-212zm3299-582c-8-108-36-368-40-372-2-2-118 62-258 143l-254 147-139-3-139-3 373-215c206-118 378-217 383-220 17-10-47-302-111-512l-30-98h-79-80l-477 387c-263 213-554 449-648 525l-169 138h-115c-63 0-111-4-105-8 5-5 270-220 589-478 319-257 606-490 638-516l58-48h-428l-428 1-488 524-489 525h-95c-72 0-92-3-87-12 9-14 809-873 908-975l60-63h-320-321l-354 525-354 525h-82c-46 0-83-3-83-7 1-5 157-240 349-523l348-515-245-3c-135-1-249 1-253 5-4 5-121 241-260 526l-252 517h-78c-77 0-78 0-70-22 5-13 120-248 254-523l245-500-206-3c-113-1-207-1-209 2-2 2-75 236-162 520s-160 519-163 522-37 4-76 2l-70-3 159-520c87-286 159-521 159-522 0-2-85-3-190-3-189 0-190 0-195 23-2 12-39 240-80 507-42 267-78 493-81 503-4 14-17 17-76 17h-70l6-37c66-409 156-988 156-999 0-12-29-14-175-14h-175v525 525h-70-70v-525-525h-175c-147 0-175 2-175 15 0 8 36 241 80 518s80 507 80 510c0 13-140 8-144-5-2-7-39-233-81-503-42-269-79-500-82-512-5-23-6-23-194-23-104 0-189 1-189 3 0 1 72 236 159 522l159 520-70 3c-39 2-73 1-76-2-2-3-76-238-163-522s-160-518-162-521c-2-2-96-2-209-1l-206 3 245 500c134 275 249 510 254 523 8 22 7 22-70 22h-78l-252-517c-139-285-256-521-260-526-4-4-118-6-253-5l-245 3 348 515c192 283 348 518 349 523 0 4-37 7-83 7h-82l-354-525-354-525h-321-320l60 63c78 79 884 946 903 970 13 16 7 17-82 17h-95l-489-525-488-524-428-1h-428l33 28c18 16 150 123 293 238 746 602 951 768 959 776 6 4-41 8-105 8h-114l-231-188c-127-103-419-339-649-525l-417-338-81 3-81 3-24 80c-50 175-129 513-120 519 2 2 176 103 388 224l384 222h-143-144l-242-140c-262-151-275-158-275-141 0 7-6 74-14 149s-17 170-20 210l-5 72h4649 4649zm-286-1340c-12-32-38-98-59-148l-37-90h-4262-4262l-37 90c-21 50-47 116-59 148l-22 57h4380 4380zm442-1293v-900h-4800-4800v900 900h4800 4800zm-7408-1104c475-306 1047-544 1578-656 400-85 593-104 1025-104 373 0 484 8 804 60 614 99 1238 338 1784 685l109 69 266-2 267-3-113-83c-527-389-1050-652-1657-831-1109-328-2345-265-3415 176-218 89-548 257-738 373-136 84-402 269-493 342l-34 28h267 267zm4967 20c-308-185-713-361-1065-461-262-75-570-134-829-159-753-74-1478 28-2190 307-136 54-541 252-635 312l-55 35h2415 2415z"/><path d="m4910 3070v-370h70 70v370 370h-70-70z"/><path d="m7920 3310c0-71-2-130-4-130-3 0-22 10-42 22-100 59-231 4-270-114-16-48-20-173-8-224 35-147 176-215 289-139 35 25 45 23 45-7 0-15 8-18 60-18h60v370 370h-65-65zm-29-219c28-29 29-32 29-131s-1-102-29-131c-21-20-39-29-63-29-70 0-108 57-108 160s38 160 108 160c24 0 42-9 63-29z"/><path d="m9053 3405c-27-19-31-75-7-99 39-40 110-24 127 28 20 61-64 111-120 71z"/><path d="m1920 3397c-149-42-214-151-213-357 1-83 6-117 23-163 39-103 106-160 208-178 157-28 304 59 328 194l6 37h-70-69l-7-31c-3-17-19-44-35-60-26-25-37-29-86-29-68 0-109 19-132 63-27 49-26 308 1 353s65 64 129 64c67 0 101-24 121-85l14-40 66-3c59-3 66-1 66 16 0 32-28 100-56 137-53 70-195 110-294 82z"/><path d="m5430 3050v-350h65 64l3 143 3 142 138 3 137 3v54 55h-140-141l3 93 3 92 158 3 157 3v54 55h-225-225z"/><path d="m8720 3285v-65h-35-35v-50-50h35 35v-137c1-163 9-215 41-249 29-31 88-47 145-38l44 6v49c0 46-2 49-26 49-14 0-34 5-45 10-17 10-19 23-19 160v150h45 45v50 50h-45-45v65 65h-70-70z"/><path d="m2498 3216c-59-16-94-39-118-79-35-57-29-67 44-67 56 0 65 3 71 21 7 22 42 39 81 39 34 0 74-42 74-78v-29l-80-6c-95-8-155-31-193-76-23-28-27-42-27-93 0-57 2-63 38-98 63-63 152-75 230-29 41 23 39 23 45-1 4-17 14-20 72-20 65 0 67 1 60 23-4 12-9 101-12 197-2 96-9 187-15 203-17 43-71 84-128 96-63 13-82 13-142-3zm150-327c-2-43-8-55-31-72-55-41-137-16-137 42 1 52 42 80 118 81h53z"/><path d="m3094 3216c-17-8-39-24-48-37l-16-23-6 32c-6 32-7 32-65 32h-59v-260-260h65 65l2 176 3 177 27 20c23 17 50 22 118 22 1 0 3 26 7 59 4 44 2 60-8 67-20 12-49 10-85-5z"/><path d="m3378 3216c-59-16-94-39-118-79-35-57-29-67 44-67 56 0 65 3 71 21 7 22 42 39 81 39 34 0 74-42 74-78v-29l-80-6c-95-8-155-31-193-76-23-28-27-42-27-93 0-57 2-63 38-98 63-63 152-75 230-29 41 23 39 23 45-1 4-17 14-20 72-20 65 0 67 1 60 23-4 12-9 101-12 197-2 96-9 187-15 203-17 43-71 84-128 96-63 13-82 13-142-3zm150-327c-2-43-8-55-31-72-55-41-137-16-137 42 1 52 42 80 118 81h53z"/><path d="m3913 3220c-49-11-98-54-124-107-21-41-24-63-24-153 0-94 3-111 26-155 36-72 92-108 166-109 43-1 68 5 96 21l37 22v-40c0-31-7-47-29-70-25-25-37-29-84-29-42 0-63 6-92 26l-39 26-18-24c-39-49-40-55-8-81 62-53 184-68 272-34 56 22 113 81 127 134 7 22 11 148 11 306v267h-60c-56 0-60-2-66-26-6-25-6-25-28-6-21 20-87 43-116 41-8-1-30-5-47-9zm151-121c25-20 26-23 26-139s-1-119-26-139c-52-41-122-21-154 44-36 75-22 185 31 229 38 32 86 34 123 5z"/><path d="m4498 3216c-111-30-169-118-169-256 0-115 40-198 113-236 127-66 288-20 344 99 35 77 34 202-2 276-32 64-86 105-155 120-61 13-71 13-131-3zm122-111c58-30 81-189 36-257-38-58-129-61-170-5-25 33-33 133-17 195 19 70 87 100 151 67z"/><path d="m6098 3216c-111-30-169-117-169-255 0-115 40-199 113-237 127-66 288-20 344 99 35 77 34 202-2 276-32 64-86 105-155 120-61 13-71 13-131-3zm122-111c58-30 81-189 36-257-38-58-129-61-170-5-25 33-33 133-17 195 19 70 87 100 151 67z"/><path d="m7280 3219c-19-6-50-22-67-35l-33-25v30 31h-65-65v-260-260h70 70v188c0 172 2 190 19 206 24 22 79 30 113 17 39-15 48-61 48-248v-163h66 65l-3 208c-3 186-5 211-23 241-11 19-31 42-45 52-31 23-103 32-150 18z"/><path d="m8298 3216c-59-16-94-39-118-79-35-57-29-67 44-67 56 0 65 3 71 21 7 22 42 39 81 39 34 0 74-42 74-78v-29l-80-6c-95-8-155-31-193-76-23-28-27-42-27-93 0-57 2-63 38-98 63-63 152-75 230-29 41 23 39 23 45-1 4-17 14-20 72-20 65 0 67 1 60 23-4 12-9 101-12 197-2 96-9 187-15 203-17 43-71 84-128 96-63 13-82 13-142-3zm150-327c-2-43-8-55-31-72-55-41-137-16-137 42 1 52 42 80 118 81h53z"/><path d="m9438 3216c-111-30-169-118-169-256 0-115 40-198 113-236 127-66 288-20 344 99 35 77 34 202-2 276-32 64-86 105-155 120-61 13-71 13-131-3zm122-111c58-30 81-189 36-257-38-58-129-61-170-5-25 33-33 133-17 195 19 70 87 100 151 67z"/><path d="m10070 3219c-19-6-50-22-67-35l-33-25v30 31h-65-65v-260-260h70 70v188c0 172 2 190 19 206 24 22 79 30 113 17 39-15 48-61 48-248v-163h66 65l-3 208c-3 186-5 211-23 241-11 19-31 42-45 52-31 23-103 32-150 18z"/><path d="m6502 3018c3-229 13-264 79-303 52-31 145-27 198 8l41 27v-25c0-24 2-25 65-25h65v260 260h-65c-36 0-65-3-66-7-1-5-2-88-3-185-1-167-2-179-22-199-13-13-39-23-67-26-36-4-49-1-66 16-20 20-21 31-21 211v190h-71-71z"/><path d="m9030 2960v-260h70 70v260 260h-70-70z"/></g></svg>