<?xml version="1.0" standalone="no"?>
<!DOCTYPE svg PUBLIC "-//W3C//DTD SVG 20010904//EN"
 "http://www.w3.org/TR/2001/REC-SVG-20010904/DTD/svg10.dtd">
<svg version="1.0" xmlns="http://www.w3.org/2000/svg"
 width="1200.000000pt" height="1200.000000pt" viewBox="0 0 1200.000000 1200.000000"
 preserveAspectRatio="xMidYMid meet">

<g transform="translate(0.000000,1200.000000) scale(0.100000,-0.100000)"
fill="#000000" stroke="none">
<path d="M5580 11305 c-398 -32 -832 -117 -1207 -236 -300 -95 -765 -300
-1030 -455 -164 -96 -491 -317 -613 -414 -682 -548 -1162 -1143 -1526 -1895
-298 -616 -466 -1257 -515 -1970 -14 -206 -6 -659 15 -860 50 -469 156 -933
302 -1316 l44 -116 0 -1047 0 -1046 750 0 750 0 37 -33 c148 -131 445 -341
688 -487 857 -513 1838 -771 2840 -747 448 11 779 56 1204 162 737 185 1464
553 2061 1043 l75 62 748 0 747 0 0 1044 0 1044 49 134 c152 418 251 860 303
1358 20 194 17 784 -5 990 -96 892 -381 1693 -862 2420 -200 303 -396 542
-670 815 -218 219 -356 339 -576 504 -567 426 -1216 734 -1894 902 -440 108
-756 148 -1235 154 -212 3 -369 0 -480 -10z m680 -135 c827 -43 1598 -267
2301 -669 694 -398 1291 -952 1734 -1611 485 -722 774 -1532 861 -2414 24
-236 24 -708 0 -946 -48 -489 -156 -959 -318 -1378 l-39 -102 -191 0 c-177 0
-190 1 -183 17 182 447 297 900 344 1358 31 302 34 366 27 577 -14 463 -65
813 -178 1218 -278 998 -884 1889 -1717 2524 -696 530 -1515 855 -2401 951
-201 22 -628 30 -820 16 -1046 -80 -1969 -451 -2765 -1112 -137 -114 -481
-459 -596 -599 -446 -541 -750 -1118 -940 -1785 -60 -212 -125 -553 -150 -785
-46 -435 -23 -1010 56 -1395 72 -355 170 -686 275 -930 11 -26 20 -49 20 -51
0 -2 -85 -4 -189 -4 l-190 0 -39 103 c-361 937 -437 2015 -211 3000 460 2009
2082 3566 4102 3938 200 37 349 56 529 69 292 21 423 23 678 10z m205 -615
c1081 -114 2046 -570 2811 -1330 525 -522 905 -1134 1143 -1842 65 -195 169
-613 153 -613 -31 0 -162 36 -162 44 0 21 -78 164 -121 223 -91 124 -201 214
-345 286 -143 72 -221 90 -408 92 l-159 3 -938 938 -939 939 -608 -608 -608
-608 -52 105 c-59 122 -113 205 -190 294 l-55 63 -44 -43 c-62 -60 -150 -188
-203 -294 -25 -49 -46 -91 -48 -94 -1 -2 -270 263 -597 590 l-595 595 -939
-939 -938 -938 -159 -2 c-127 -2 -175 -7 -237 -24 -168 -46 -324 -139 -443
-264 -75 -79 -113 -134 -164 -240 l-40 -83 -68 -17 c-37 -10 -72 -18 -78 -18
-14 0 29 214 82 404 211 763 620 1462 1184 2027 366 366 740 640 1181 866 558
286 1203 464 1825 503 189 12 577 4 759 -15z m-1396 -2029 l564 -564 -26 -103
c-66 -263 -61 -484 15 -632 48 -95 160 -177 261 -192 l47 -7 0 -427 0 -426
-230 230 -231 231 17 32 c68 136 -19 308 -228 451 -111 75 -284 141 -372 141
l-39 0 6 -87 c18 -269 162 -554 320 -635 46 -23 129 -28 163 -10 18 10 50 -19
307 -276 l287 -287 0 -57 0 -58 -549 -2 -549 -3 -12 40 c-20 66 -86 202 -137
278 -74 112 -203 240 -321 317 -116 77 -212 120 -351 158 -87 23 -113 26 -276
26 -151 -1 -193 -4 -260 -22 -43 -12 -80 -20 -81 -19 -1 1 -16 49 -34 107 -35
114 -88 227 -144 305 -89 124 -236 244 -375 307 l-64 30 859 859 c472 472 861
859 864 859 3 0 259 -254 569 -564z m3294 -294 l859 -859 -104 -51 c-237 -117
-393 -307 -479 -582 -17 -58 -35 -108 -38 -111 -3 -4 -40 2 -81 12 -113 29
-331 36 -444 15 -224 -43 -404 -127 -567 -267 l-56 -47 -198 198 -199 199 21
38 c55 100 113 321 113 434 l0 49 -38 0 c-88 0 -251 -61 -364 -137 l-70 -46
-158 158 -157 157 -5 147 c-4 109 -13 177 -33 269 l-28 124 579 579 c318 318
581 579 584 579 3 0 391 -386 863 -858z m-5705 -978 c31 -8 103 -37 159 -64
172 -85 312 -236 383 -414 30 -74 70 -248 70 -302 0 -13 6 -27 13 -30 8 -3 67
11 132 31 221 67 413 70 605 9 276 -87 490 -271 616 -529 24 -50 44 -94 44
-98 0 -4 -750 -7 -1666 -7 l-1667 0 6 228 c6 232 31 497 49 519 14 17 123 50
211 65 66 11 70 13 84 47 46 108 108 223 148 273 122 152 333 268 535 292 58
7 217 -4 278 -20z m7069 0 c70 -18 186 -71 250 -116 139 -95 248 -237 313
-410 l20 -53 109 -21 c60 -12 126 -30 147 -40 l39 -19 12 -95 c20 -163 33
-361 33 -508 l0 -142 -1665 0 c-1345 0 -1665 2 -1665 13 0 19 64 148 104 212
55 85 191 220 286 284 172 115 335 163 555 164 127 1 151 -2 255 -31 63 -17
134 -38 156 -46 l41 -14 17 106 c21 134 47 216 97 313 115 222 336 379 587
419 74 11 235 3 309 -16z m-3130 -301 c-61 -94 -80 -186 -53 -263 14 -41 14
-46 -2 -65 -41 -48 -457 -465 -464 -465 -4 0 -8 195 -8 434 l0 434 57 18 c80
25 142 70 187 137 l40 58 130 -131 131 -130 -18 -27z m748 -738 c-77 -105
-130 -211 -178 -347 -6 -17 -41 -18 -552 -18 l-545 0 0 48 0 47 298 298 299
299 51 -17 c46 -16 55 -16 105 -1 31 9 76 33 103 55 l49 40 192 -192 c182
-181 192 -192 178 -212z m3299 -582 c-8 -108 -36 -368 -40 -372 -2 -2 -118 62
-258 143 l-254 147 -139 -3 -139 -3 373 -215 c206 -118 378 -217 383 -220 17
-10 -47 -302 -111 -512 l-30 -98 -79 0 -80 0 -477 387 c-263 213 -554 449
-648 525 l-169 138 -115 0 c-63 0 -111 -4 -105 -8 5 -5 270 -220 589 -478 319
-257 606 -490 638 -516 l58 -48 -428 0 -428 1 -488 524 -489 525 -95 0 c-72 0
-92 -3 -87 -12 9 -14 809 -873 908 -975 l60 -63 -320 0 -321 0 -354 525 -354
525 -82 0 c-46 0 -83 -3 -83 -7 1 -5 157 -240 349 -523 l348 -515 -245 -3
c-135 -1 -249 1 -253 5 -4 5 -121 241 -260 526 l-252 517 -78 0 c-77 0 -78 0
-70 -22 5 -13 120 -248 254 -523 l245 -500 -206 -3 c-113 -1 -207 -1 -209 2
-2 2 -75 236 -162 520 -87 284 -160 519 -163 522 -3 3 -37 4 -76 2 l-70 -3
159 -520 c87 -286 159 -521 159 -522 0 -2 -85 -3 -190 -3 -189 0 -190 0 -195
23 -2 12 -39 240 -80 507 -42 267 -78 493 -81 503 -4 14 -17 17 -76 17 l-70 0
6 -37 c66 -409 156 -988 156 -999 0 -12 -29 -14 -175 -14 l-175 0 0 525 0 525
-70 0 -70 0 0 -525 0 -525 -175 0 c-147 0 -175 2 -175 15 0 8 36 241 80 518
44 277 80 507 80 510 0 13 -140 8 -144 -5 -2 -7 -39 -233 -81 -503 -42 -269
-79 -500 -82 -512 -5 -23 -6 -23 -194 -23 -104 0 -189 1 -189 3 0 1 72 236
159 522 l159 520 -70 3 c-39 2 -73 1 -76 -2 -2 -3 -76 -238 -163 -522 -87
-284 -160 -518 -162 -521 -2 -2 -96 -2 -209 -1 l-206 3 245 500 c134 275 249
510 254 523 8 22 7 22 -70 22 l-78 0 -252 -517 c-139 -285 -256 -521 -260
-526 -4 -4 -118 -6 -253 -5 l-245 3 348 515 c192 283 348 518 349 523 0 4 -37
7 -83 7 l-82 0 -354 -525 -354 -525 -321 0 -320 0 60 63 c78 79 884 946 903
970 13 16 7 17 -82 17 l-95 0 -489 -525 -488 -524 -428 -1 -428 0 33 28 c18
16 150 123 293 238 746 602 951 768 959 776 6 4 -41 8 -105 8 l-114 0 -231
-188 c-127 -103 -419 -339 -649 -525 l-417 -338 -81 3 -81 3 -24 80 c-50 175
-129 513 -120 519 2 2 176 103 388 224 l384 222 -143 0 -144 0 -242 -140
c-262 -151 -275 -158 -275 -141 0 7 -6 74 -14 149 -8 75 -17 170 -20 210 l-5
72 4649 0 4649 0 -5 -67z m-286 -1340 c-12 -32 -38 -98 -59 -148 l-37 -90
-4262 0 -4262 0 -37 90 c-21 50 -47 116 -59 148 l-22 57 4380 0 4380 0 -22
-57z m442 -1293 l0 -900 -4800 0 -4800 0 0 900 0 900 4800 0 4800 0 0 -900z
m-7408 -1104 c475 -306 1047 -544 1578 -656 400 -85 593 -104 1025 -104 373 0
484 8 804 60 614 99 1238 338 1784 685 l109 69 266 -2 267 -3 -113 -83 c-527
-389 -1050 -652 -1657 -831 -1109 -328 -2345 -265 -3415 176 -218 89 -548 257
-738 373 -136 84 -402 269 -493 342 l-34 28 267 0 267 0 83 -54z m4967 20
c-308 -185 -713 -361 -1065 -461 -262 -75 -570 -134 -829 -159 -753 -74 -1478
28 -2190 307 -136 54 -541 252 -635 312 l-55 35 2415 0 2415 0 -56 -34z"/>
<path d="M4910 3070 l0 -370 70 0 70 0 0 370 0 370 -70 0 -70 0 0 -370z"/>
<path d="M7920 3310 c0 -71 -2 -130 -4 -130 -3 0 -22 10 -42 22 -100 59 -231
4 -270 -114 -16 -48 -20 -173 -8 -224 35 -147 176 -215 289 -139 35 25 45 23
45 -7 0 -15 8 -18 60 -18 l60 0 0 370 0 370 -65 0 -65 0 0 -130z m-29 -219
c28 -29 29 -32 29 -131 0 -99 -1 -102 -29 -131 -21 -20 -39 -29 -63 -29 -70 0
-108 57 -108 160 0 103 38 160 108 160 24 0 42 -9 63 -29z"/>
<path d="M9053 3405 c-27 -19 -31 -75 -7 -99 39 -40 110 -24 127 28 20 61 -64
111 -120 71z"/>
<path d="M1920 3397 c-149 -42 -214 -151 -213 -357 1 -83 6 -117 23 -163 39
-103 106 -160 208 -178 157 -28 304 59 328 194 l6 37 -70 0 -69 0 -7 -31 c-3
-17 -19 -44 -35 -60 -26 -25 -37 -29 -86 -29 -68 0 -109 19 -132 63 -27 49
-26 308 1 353 27 45 65 64 129 64 67 0 101 -24 121 -85 l14 -40 66 -3 c59 -3
66 -1 66 16 0 32 -28 100 -56 137 -53 70 -195 110 -294 82z"/>
<path d="M5430 3050 l0 -350 65 0 64 0 3 143 3 142 138 3 137 3 0 54 0 55
-140 0 -141 0 3 93 3 92 158 3 157 3 0 54 0 55 -225 0 -225 0 0 -350z"/>
<path d="M8720 3285 l0 -65 -35 0 -35 0 0 -50 0 -50 35 0 35 0 0 -137 c1 -163
9 -215 41 -249 29 -31 88 -47 145 -38 l44 6 0 49 c0 46 -2 49 -26 49 -14 0
-34 5 -45 10 -17 10 -19 23 -19 160 l0 150 45 0 45 0 0 50 0 50 -45 0 -45 0 0
65 0 65 -70 0 -70 0 0 -65z"/>
<path d="M2498 3216 c-59 -16 -94 -39 -118 -79 -35 -57 -29 -67 44 -67 56 0
65 3 71 21 7 22 42 39 81 39 34 0 74 -42 74 -78 l0 -29 -80 -6 c-95 -8 -155
-31 -193 -76 -23 -28 -27 -42 -27 -93 0 -57 2 -63 38 -98 63 -63 152 -75 230
-29 41 23 39 23 45 -1 4 -17 14 -20 72 -20 65 0 67 1 60 23 -4 12 -9 101 -12
197 -2 96 -9 187 -15 203 -17 43 -71 84 -128 96 -63 13 -82 13 -142 -3z m150
-327 c-2 -43 -8 -55 -31 -72 -55 -41 -137 -16 -137 42 1 52 42 80 118 81 l53
0 -3 -51z"/>
<path d="M3094 3216 c-17 -8 -39 -24 -48 -37 l-16 -23 -6 32 c-6 32 -7 32 -65
32 l-59 0 0 -260 0 -260 65 0 65 0 2 176 3 177 27 20 c23 17 50 22 118 22 1 0
3 26 7 59 4 44 2 60 -8 67 -20 12 -49 10 -85 -5z"/>
<path d="M3378 3216 c-59 -16 -94 -39 -118 -79 -35 -57 -29 -67 44 -67 56 0
65 3 71 21 7 22 42 39 81 39 34 0 74 -42 74 -78 l0 -29 -80 -6 c-95 -8 -155
-31 -193 -76 -23 -28 -27 -42 -27 -93 0 -57 2 -63 38 -98 63 -63 152 -75 230
-29 41 23 39 23 45 -1 4 -17 14 -20 72 -20 65 0 67 1 60 23 -4 12 -9 101 -12
197 -2 96 -9 187 -15 203 -17 43 -71 84 -128 96 -63 13 -82 13 -142 -3z m150
-327 c-2 -43 -8 -55 -31 -72 -55 -41 -137 -16 -137 42 1 52 42 80 118 81 l53
0 -3 -51z"/>
<path d="M3913 3220 c-49 -11 -98 -54 -124 -107 -21 -41 -24 -63 -24 -153 0
-94 3 -111 26 -155 36 -72 92 -108 166 -109 43 -1 68 5 96 21 l37 22 0 -40 c0
-31 -7 -47 -29 -70 -25 -25 -37 -29 -84 -29 -42 0 -63 6 -92 26 l-39 26 -18
-24 c-39 -49 -40 -55 -8 -81 62 -53 184 -68 272 -34 56 22 113 81 127 134 7
22 11 148 11 306 l0 267 -60 0 c-56 0 -60 -2 -66 -26 -6 -25 -6 -25 -28 -6
-21 20 -87 43 -116 41 -8 -1 -30 -5 -47 -9z m151 -121 c25 -20 26 -23 26 -139
0 -116 -1 -119 -26 -139 -52 -41 -122 -21 -154 44 -36 75 -22 185 31 229 38
32 86 34 123 5z"/>
<path d="M4498 3216 c-111 -30 -169 -118 -169 -256 0 -115 40 -198 113 -236
127 -66 288 -20 344 99 35 77 34 202 -2 276 -32 64 -86 105 -155 120 -61 13
-71 13 -131 -3z m122 -111 c58 -30 81 -189 36 -257 -38 -58 -129 -61 -170 -5
-25 33 -33 133 -17 195 19 70 87 100 151 67z"/>
<path d="M6098 3216 c-111 -30 -169 -117 -169 -255 0 -115 40 -199 113 -237
127 -66 288 -20 344 99 35 77 34 202 -2 276 -32 64 -86 105 -155 120 -61 13
-71 13 -131 -3z m122 -111 c58 -30 81 -189 36 -257 -38 -58 -129 -61 -170 -5
-25 33 -33 133 -17 195 19 70 87 100 151 67z"/>
<path d="M7280 3219 c-19 -6 -50 -22 -67 -35 l-33 -25 0 30 0 31 -65 0 -65 0
0 -260 0 -260 70 0 70 0 0 188 c0 172 2 190 19 206 24 22 79 30 113 17 39 -15
48 -61 48 -248 l0 -163 66 0 65 0 -3 208 c-3 186 -5 211 -23 241 -11 19 -31
42 -45 52 -31 23 -103 32 -150 18z"/>
<path d="M8298 3216 c-59 -16 -94 -39 -118 -79 -35 -57 -29 -67 44 -67 56 0
65 3 71 21 7 22 42 39 81 39 34 0 74 -42 74 -78 l0 -29 -80 -6 c-95 -8 -155
-31 -193 -76 -23 -28 -27 -42 -27 -93 0 -57 2 -63 38 -98 63 -63 152 -75 230
-29 41 23 39 23 45 -1 4 -17 14 -20 72 -20 65 0 67 1 60 23 -4 12 -9 101 -12
197 -2 96 -9 187 -15 203 -17 43 -71 84 -128 96 -63 13 -82 13 -142 -3z m150
-327 c-2 -43 -8 -55 -31 -72 -55 -41 -137 -16 -137 42 1 52 42 80 118 81 l53
0 -3 -51z"/>
<path d="M9438 3216 c-111 -30 -169 -118 -169 -256 0 -115 40 -198 113 -236
127 -66 288 -20 344 99 35 77 34 202 -2 276 -32 64 -86 105 -155 120 -61 13
-71 13 -131 -3z m122 -111 c58 -30 81 -189 36 -257 -38 -58 -129 -61 -170 -5
-25 33 -33 133 -17 195 19 70 87 100 151 67z"/>
<path d="M10070 3219 c-19 -6 -50 -22 -67 -35 l-33 -25 0 30 0 31 -65 0 -65 0
0 -260 0 -260 70 0 70 0 0 188 c0 172 2 190 19 206 24 22 79 30 113 17 39 -15
48 -61 48 -248 l0 -163 66 0 65 0 -3 208 c-3 186 -5 211 -23 241 -11 19 -31
42 -45 52 -31 23 -103 32 -150 18z"/>
<path d="M6502 3018 c3 -229 13 -264 79 -303 52 -31 145 -27 198 8 l41 27 0
-25 c0 -24 2 -25 65 -25 l65 0 0 260 0 260 -65 0 c-36 0 -65 -3 -66 -7 -1 -5
-2 -88 -3 -185 -1 -167 -2 -179 -22 -199 -13 -13 -39 -23 -67 -26 -36 -4 -49
-1 -66 16 -20 20 -21 31 -21 211 l0 190 -71 0 -71 0 4 -202z"/>
<path d="M9030 2960 l0 -260 70 0 70 0 0 260 0 260 -70 0 -70 0 0 -260z"/>
</g>
</svg>
